<svg id="death_star" data-name="death star" xmlns="http://www.w3.org/2000/svg" viewBox="0 0 96 96"><defs><style>.cls-1{fill:#fff;}</style></defs><path class="cls-1" d="M77.76,35.53h-.53A19.82,19.82,0,0,1,67,31.83C60.14,27.09,57.11,19.54,60.25,15c1.57-2.27,4.37-3.44,7.88-3.31a19.82,19.82,0,0,1,10.24,3.69,19.8,19.8,0,0,1,7.06,8.28c1.36,3.24,1.25,6.28-.32,8.54h0C83.62,34.36,81,35.53,77.76,35.53ZM67.6,13.68c-2.59,0-4.6.86-5.71,2.46-2.51,3.63.29,9.93,6.24,14a17.86,17.86,0,0,0,9.18,3.34c2.81.11,5-.76,6.16-2.45h0c1.17-1.69,1.21-4,.12-6.63A17.69,17.69,0,0,0,77.23,17a17.86,17.86,0,0,0-9.18-3.34Z" transform="translate(-2.5 -1.5)"/><path class="cls-1" d="M96.9,44.85c-49.46-13.37-92.33-.14-92.76,0l-.6-1.91c.43-.14,43.84-13.54,93.88,0Z" transform="translate(-2.5 -1.5)"/><path class="cls-1" d="M50.5,97.5a48,48,0,1,1,48-48A48.05,48.05,0,0,1,50.5,97.5Zm0-94a46,46,0,1,0,46,46A46.06,46.06,0,0,0,50.5,3.5Z" transform="translate(-2.5 -1.5)"/></svg>